<?xml version="1.0" encoding="UTF-8"?>
<svg width="1024px" height="1024px" viewBox="0 0 1024 1024" version="1.1" xmlns="http://www.w3.org/2000/svg" xmlns:xlink="http://www.w3.org/1999/xlink">
    <title>DDNSTO2.0备份</title>
    <g id="DDNSTO2.0备份" stroke="none" stroke-width="1" fill="none" fill-rule="evenodd">
        <path d="M646,178 L646,691.5 C646,716.352814 666.147186,736.5 691,736.5 L847.5,736.5 L847.5,846.5 L691,846.5 C605.395864,846.5 536,777.104136 536,691.5 L536,178 L646,178 Z M809,285 L915,391.066017 L809,495.717821 L808.999,445 L678,445 L678,335 L808.999,335 L809,285 Z M504,690 C504,775.604136 434.604136,845 349,845 L263,845 C177.395864,845 108,775.604136 108,690 L108,490 C108,404.395864 177.395864,335 263,335 L362,335 L362,445 L263,445 C238.147186,445 218,465.147186 218,490 L218,690 C218,714.852814 238.147186,735 263,735 L349,735 C373.852814,735 394,714.852814 394,690 L394,178 L504,178 L504,690 Z" id="形状结合" fill="#02F1FF" fill-rule="nonzero"></path>
    </g>
</svg>