<svg xmlns="http://www.w3.org/2000/svg" viewBox="0 0 512 512">
  <defs>
    <linearGradient id="grad1" x1="0%" y1="0%" x2="100%" y2="100%">
      <stop offset="0%" style="stop-color:#00f2fe;stop-opacity:1" />
      <stop offset="100%" style="stop-color:#4facfe;stop-opacity:1" />
    </linearGradient>
  </defs>
  <!-- A modern, stylized 'D' representing a tunnel/connection -->
  <!-- The shape is a continuous loop forming a 'd' with an arrow suggestion -->
  <path d="M160,80 C137.9,80 120,97.9 120,120 V392 C120,414.1 137.9,432 160,432 H220 C320,432 392,360 392,256 C392,152 320,80 220,80 H160 Z M220,352 H190 V160 H220 C280,160 312,200 312,256 C312,312 280,352 220,352 Z" fill="url(#grad1)" />
  
  <!-- An arrow head accent to suggest motion/tunneling, placed in the negative space or overlapping -->
  <path d="M260,226 L300,256 L260,286 V266 H200 V246 H260 V226 Z" fill="white" />
</svg>
